<svg width="907" height="895" viewBox="0 0 907 895" fill="none" xmlns="http://www.w3.org/2000/svg">
<path d="M907 447.5C907 694.647 703.961 895 453.5 895C203.039 895 0 694.647 0 447.5C0 200.353 203.039 0 453.5 0C703.961 0 907 200.353 907 447.5Z" fill="#F5A4A4"/>
<path d="M907 447.5C907 694.647 703.961 895 453.5 895C203.039 895 0 694.647 0 447.5C0 200.353 203.039 0 453.5 0C703.961 0 907 200.353 907 447.5Z" stroke="black"/>
<path d="M366.496 205.316H172.327L91 597.422C91 650.636 99.332 680.754 150.979 714.12C169.515 726.095 195.971 731 207.066 731C218.16 731 237.362 728.015 255.711 721.623C297.069 707.216 329.163 676.204 357.347 646.14C384.578 707.55 439.69 720.655 439.69 720.655C459.353 724.167 517.126 744.39 594.212 714.12C623.36 702.069 639.742 695.196 674.523 666.507C706.98 641.117 721.241 623.107 743.651 588.086C780.567 513.511 790.422 490.473 803.629 440.579C816.837 390.686 818.971 371.068 821.992 332.261C822.028 321.415 821.928 308.997 821.928 294.007C818.584 266.361 818.205 250.819 803.629 221.387C788.887 201.165 775.449 195.37 753.816 186.644C725.335 180.291 710.023 180.674 681.638 200.648C658.002 219.369 654.316 231.392 654.191 253.862C659.626 282.304 664.33 296.763 681.638 314.545C697.282 328.64 725.387 325.994 726.368 323.881C727.35 321.769 714.169 384.564 714.169 384.564C704.604 422.276 686.401 471.449 681.638 483.524C676.875 495.6 645.726 561.012 645.726 561.012C609.801 630.361 533.597 631.245 544.399 561.012L621.66 200.648H440.707C440.707 200.648 378.695 465.786 357.347 540.473C335.998 615.16 271.676 631.031 287.202 552.61C302.728 474.188 366.496 205.316 366.496 205.316Z" fill="#8C4A97"/>
</svg>
